# xmcd
#
# Track frame offsets: 
#        150
#        40964
#        75360
#        114666
#        152878
#        185863
#
# Disc length: 2742 seconds
#
# Revision: 0
# Processed by: cddbd v1.5.2PL0 Copyright (c) Steve Scherf et al.
# Submitted via: ExactAudioCopyFreeDBPlugin 1.0
#
DISCID=480ab406
DTITLE=Mel Lyman Family - Birth
DYEAR=1970
DGENRE=Country
TTITLE0=River
TTITLE1=I'm So Lpnesome I Could Cry
TTITLE2=Careless Love
TTITLE3=People Get Ready
TTITLE4=He Was A Friend Of Mine
TTITLE5=The Rain
EXTD=
EXTT0=
EXTT1=
EXTT2=
EXTT3=
EXTT4=
EXTT5=
PLAYORDER=
